# AST/ASF file generated using VICON BodyLanguage
# -----------------------------------------------
:version 1.10
:name VICON
:units
  mass 1.0
  length 0.45
  angle deg
:documentation
   .ast/.asf automatically generated from VICON data using
   VICON BodyBuilder and BodyLanguage model FoxedUp or BRILLIANT.MOD
:root
   order TX TY TZ RX RY RZ
   axis XYZ
   position 0 0 0  
   orientation 0 0 0 
:bonedata
  begin
     id 1 
     name lhipjoint
     direction 0.537252 -0.787203 0.302774 
     length 2.29576 
     axis 0 0 0  XYZ
  end
  begin
     id 2 
     name lfemur
     direction 0.34202 -0.939693 0  
     length 7.31114  
     axis 0 0 20  XYZ
    dof rx ry rz
    limits (-160.0 20.0)
           (-70.0 70.0)
           (-60.0 70.0)
  end
  begin
     id 3 
     name ltibia
     direction 0.34202 -0.939693 0   
     length 8.36008   
     axis 0 0 20   XYZ
    dof rx
    limits (-10.0 170.0)
  end
  begin
     id 4 
     name lfoot
     direction 0.0969116 -0.266263 0.959016   
     length 2.16704   
     axis -90 7.62852e-016 20   XYZ
    dof rx rz
    limits (-45.0 90.0)
           (-70.0 20.0)
  end
  begin
     id 5 
     name ltoes
     direction 1.53563e-011 -4.21779e-011 1   
     length 1.08338   
     axis -90 7.62852e-016 20   XYZ
    dof rx
    limits (-90.0 20.0)
  end
  begin
     id 6 
     name rhipjoint
     direction -0.588228 -0.754791 0.290308   
     length 2.39434  
     axis 0 0 0  XYZ 
  end
  begin
     id 7 
     name rfemur
     direction -0.34202 -0.939693 0   
     length 7.45207   
     axis 0 0 -20   XYZ
    dof rx ry rz
    limits (-160.0 20.0)
           (-70.0 70.0)
           (-70.0 60.0)
  end
  begin
     id 8 
     name rtibia
     direction -0.34202 -0.939693 0   
     length 8.03565   
     axis 0 0 -20   XYZ
    dof rx
    limits (-10.0 170.0)
 end
 begin
     id 9 
     name rfoot
     direction -0.107009 -0.294004 0.949795   
     length 2.11509  
     axis -90 -7.62852e-016 -20   XYZ
    dof rx rz
    limits (-45.0 90.0)
           (-20.0 70.0)
  end
  begin
     id 10 
     name rtoes
     direction -1.53533e-011 -4.22004e-011 1   
     length 1.05493   
     axis -90 -7.62852e-016 -20   XYZ
    dof rx
    limits (-90.0 20.0)
  end
  begin
     id 11 
     name lowerback
     direction -0.0115208 0.997969 -0.0626515   
     length 2.03153   
     axis 0 0 0   XYZ
    dof rx ry rz
    limits (-20.0 45.0)
           (-30.0 30.0)
           (-30.0 30.0)
  end
  begin
     id 12 
     name upperback
     direction -0.00423475 0.999974 -0.00583614   
     length 2.03619   
     axis 0 0 0   XYZ
    dof rx ry rz
    limits (-20.0 45.0)
           (-30.0 30.0)
           (-30.0 30.0)
  end
  begin
     id 13 
     name thorax
     direction 0.00289429 0.999728 0.0231573   
     length 2.03921   
     axis 0 0 0   XYZ
    dof rx ry rz
    limits (-20.0 45.0)
           (-30.0 30.0)
           (-30.0 30.0)
  end
  begin
     id 14 
     name lowerneck
     direction 0.0188995 0.987777 0.154721   
     length 1.78836   
     axis 0 0 0   XYZ
    dof rx ry rz
    limits (-20.0 45.0)
           (-30.0 30.0)
           (-30.0 30.0)
  end
  begin
     id 15 
     name upperneck
     direction -0.00612612 0.992995 -0.118   
     length 1.81789   
     axis 0 0 0   XYZ
    dof rx ry rz
    limits (-20.0 45.0)
           (-30.0 30.0)
           (-30.0 30.0)
  end
  begin
     id 16
     name head
     direction -0.00420226 0.998397 -0.0564482  
     length 1.82234  
     axis 0 0 0   XYZ
    dof rx ry rz
    limits (-20.0 45.0)
           (-30.0 30.0)
           (-30.0 30.0)
  end
  begin
     id 17 
     name lclavicle
     direction 0.916488 0.396539 0.0529676  
     length 3.51732  
     axis 0 0 0   XYZ
    dof ry rz
    limits (-20.0 10.0)
           (0.0 20.0)
  end
  begin
     id 18 
     name lhumerus
     direction 1 -4.4896e-011 8.36962e-028   
     length 5.45077   
     axis 180 -30 -90   XYZ
    dof rx ry rz
    limits (-60.0 90.0)
           (-90.0 90.0)
           (-90.0 90.0)
  end
  begin
     id 19
     name lradius
     direction 1 -4.48962e-011 3.01407e-027   
     length 3.05488   
     axis 180 -30 -90   XYZ
    dof rx
    limits (-10.0 170.0)
  end
  begin
     id 20
     name lwrist
     direction 1 -4.49002e-011 4.72961e-027   
     length 1.52744   
     axis -2.72261e-015 90 90   XYZ
    dof ry
    limits (-180.0 0.0)
 end
  begin
     id 21 
     name lhand
     direction 1 -4.4899e-011 9.45681e-027   
     length 0.638818   
     axis -6.0311e-015 90 90   XYZ
    dof rx rz
    limits (-90.0 90.0)
           (-45.0 45.0)
  end
  begin
     id 22 
     name lfingers
     direction 1 -4.48871e-011 1.88632e-026   
     length 0.515032   
     axis -1.20625e-014 90 90   XYZ
    dof rx
    limits (0.0 90.0)
  end
  begin
     id 23
     name lthumb
     direction 0.707107 -6.34964e-011 0.707107   
     length 0.739485   
     axis -90 45 6.32835e-014   XYZ
    dof rx rz
    limits (-45.0 45.0)
           (-45.0 45.0)
  end
  begin
     id 24 
     name rclavicle
     direction -0.949427 0.303202 0.0815894   
     length 3.76167  
     axis 0 0 0   XYZ 
    dof ry rz
    limits (-10.0 20.0)
           (-20.0 0.0)
  end
  begin
     id 25 
     name rhumerus
     direction -1 -4.48971e-011 -6.43969e-018  
     length 4.88702   
     axis 180 30 90   XYZ
    dof rx ry rz
    limits (-90.0 60.0)
           (-90.0 90.0)
           (-90.0 90.0)
  end
  begin
     id 26 
     name rradius
     direction -1 -4.48987e-011 5.46662e-027   
     length 3.22603   
     axis 180 30 90   XYZ
    dof rx
    limits (-10.0 170.0)
  end
  begin
     id 27 
     name rwrist
     direction -1 -4.48956e-011 4.72476e-027   
     length 1.61302   
     axis -2.72261e-015 -90 -90   XYZ
    dof ry
    limits (-180.0 0.0)
  end
  begin
     id 28
     name rhand
     direction -1 -4.4889e-011 9.43571e-027   
     length 0.716293   
     axis -6.0311e-015 -90 -90   XYZ
    dof rx rz
    limits (-90.0 90.0)
           (-45.0 45.0)
  end
  begin
     id 29
     name rfingers
     direction -1 -4.48887e-011 1.88701e-026   
     length 0.577494   
     axis -1.20625e-014 -90 -90   XYZ
    dof rx
    limits (0.0 90.0)
  end
  begin
     id 30
     name rthumb
     direction -0.707107 -6.34825e-011 0.707107   
     length 0.829169   
     axis -90 -45 -6.32835e-014   XYZ
    dof rx rz
    limits (-45.0 45.0)
           (-45.0 45.0)
  end
:hierarchy
  begin
    root lhipjoint rhipjoint lowerback
    lhipjoint lfemur
    lfemur ltibia
    ltibia lfoot
    lfoot ltoes
    rhipjoint rfemur
    rfemur rtibia
    rtibia rfoot
    rfoot rtoes
    lowerback upperback
    upperback thorax
    thorax lowerneck lclavicle rclavicle
    lowerneck upperneck
    upperneck head
    lclavicle lhumerus
    lhumerus lradius
    lradius lwrist
    lwrist lhand lthumb
    lhand lfingers
    rclavicle rhumerus
    rhumerus rradius
    rradius rwrist
    rwrist rhand rthumb
    rhand rfingers
  end

#!OML:ASF F:\VICON\USERDATA\INSTALL\rory3\rory3.ASF
:FULLY-SPECIFIED
:DEGREES
1239
root 1.34983 18.5428 0.778155 -168.64 82.1399 -181.81
lowerback -5.93945 0.922665 -2.36516
upperback -2.57956 1.4699 -2.26942
thorax 0.675092 0.776255 -0.910568
lowerneck -19.0481 -5.96417 -2.1894
upperneck 2.23098 -7.7681 7.04502
head 4.05465 -3.33381 1.85042
rclavicle -4.37326e-015 -4.05521e-014
rhumerus -6.04774 -8.9709 -97.5091
rradius 69.348
rwrist 109.842
rhand -24.7303 -10.921
rfingers 7.12502
rthumb 1.77202 -40.8934
lclavicle -4.37326e-015 -4.05521e-014
lhumerus -37.7514 -22.2565 91.7592
lradius 45.3309
lwrist 20.4702
lhand -9.71396 28.2165
lfingers 7.12502
lthumb 16.2591 57.5547
rfemur -7.63067 -14.9121 20.9727
rtibia 1.82882e-014
rfoot -4.08298 8.0841
rtoes -7.79666
lfemur -19.3075 2.86001 -16.496
ltibia 19.0408
lfoot -12.0371 -5.57419
ltoes -25.9041
1240
root 1.3605 18.5406 0.764504 -169.508 82.322 -182.523
lowerback -6.01845 0.908894 -2.2807
upperback -2.65719 1.44975 -2.26405
thorax 0.641168 0.767152 -0.953069
lowerneck -18.8526 -5.97948 -2.1702
upperneck 2.18271 -7.78991 6.97995
head 4.00713 -3.35544 1.82986
rclavicle -1.07344e-014 7.15625e-015
rhumerus -4.5103 -8.93133 -97.5169
rradius 70.5477
rwrist 109.759
rhand -25.5982 -11.1247
rfingers 7.12502
rthumb 0.933828 -41.1024
lclavicle -1.07344e-014 7.15625e-015
lhumerus -38.0822 -22.3246 91.8536
lradius 45.4227
lwrist 20.3675
lhand -9.74525 27.7769
lfingers 7.12502
lthumb 16.229 57.1176
rfemur -7.40548 -14.7674 20.7362
rtibia -7.15625e-015
rfoot -4.17034 8.09987
rtoes -8.10828
lfemur -18.9883 2.91583 -16.65
ltibia 18.8984
lfoot -12.1906 -5.50637
ltoes -25.8122
1241
root 1.37014 18.5416 0.753894 -170.636 82.5219 -183.543
lowerback -6.13766 0.887372 -2.27473
upperback -2.73422 1.42573 -2.25815
thorax 0.628144 0.756715 -0.950612
lowerneck -18.6657 -5.97159 -2.18794
upperneck 2.11596 -7.77416 6.9616
head 3.95728 -3.35594 1.83318
rclavicle 1.4064e-014 -1.35174e-014
rhumerus -2.87907 -8.9314 -97.5261
rradius 71.5579
rwrist 109.457
rhand -26.5292 -11.2738
rfingers 7.12502
rthumb 0.0346727 -41.2536
lclavicle 1.4064e-014 -1.35174e-014
lhumerus -38.3163 -22.2493 91.811
lradius 45.6611
lwrist 20.6423
lhand -9.40452 27.9113
lfingers 7.12502
lthumb 16.557 57.225
rfemur -7.25239 -14.6053 20.487
rtibia -3.18055e-015
rfoot -4.24758 8.13425
rtoes -8.47015
lfemur -18.6996 2.93217 -16.8163
ltibia 18.7423
lfoot -12.201 -5.4459
ltoes -25.3496
1242
root 1.37937 18.5425 0.744195 -171.239 82.6993 -184.004
lowerback -6.21656 0.894343 -2.11203
upperback -2.7945 1.43069 -2.32484
thorax 0.615683 0.759221 -1.10924
lowerneck -18.4839 -5.95358 -2.02143
upperneck 2.03121 -7.77992 6.91199
head 3.89519 -3.36606 1.79647
rclavicle 1.635e-014 4.77083e-015
rhumerus -1.20335 -8.93987 -97.6004
rradius 72.5391
rwrist 109.326
rhand -27.1778 -11.1917
rfingers 7.12502
rthumb -0.591831 -41.1706
lclavicle 1.635e-014 4.77083e-015
lhumerus -38.5019 -22.2189 91.5979
lradius 45.8939
lwrist 20.8763
lhand -9.05609 27.7692
lfingers 7.12502
lthumb 16.8924 57.0546
rfemur -7.07054 -14.4495 20.3176
rtibia 2.54444e-014
rfoot -4.24446 8.14146
rtoes -8.85411
lfemur -18.3915 2.9872 -16.9041
ltibia 18.6128
lfoot -12.219 -5.39502
ltoes -25.2986
1243
root 1.38791 18.542 0.734361 -171.857 82.9073 -184.479
lowerback -6.27026 0.886168 -1.96936
upperback -2.86639 1.41459 -2.36405
thorax 0.575918 0.751428 -1.23045
lowerneck -18.4341 -5.92929 -1.94959
upperneck 2.14428 -7.77447 6.90281
head 3.91949 -3.36328 1.78238
rclavicle 1.14798e-014 3.97569e-015
rhumerus 0.43595 -8.77565 -97.5952
rradius 73.4527
rwrist 109.258
rhand -27.8829 -11.122
rfingers 7.12502
rthumb -1.27286 -41.0979
lclavicle 1.14798e-014 3.97569e-015
lhumerus -38.6205 -22.032 91.3717
lradius 45.9721
lwrist 21.0252
lhand -8.85259 27.3939
lfingers 7.12502
lthumb 17.0883 56.6624
rfemur -6.87408 -14.2626 20.1443
rtibia 9.54166e-015
rfoot -4.24724 8.12685
rtoes -8.96463
lfemur -18.1185 3.09572 -17.0086
ltibia 18.5367
lfoot -12.3224 -5.31011
ltoes -25.7101
1244
root 1.39918 18.5419 0.722948 -171.737 83.0804 -184.277
lowerback -6.47048 0.889573 -1.80949
upperback -2.91256 1.41594 -2.31491
thorax 0.642211 0.751368 -1.26624
lowerneck -18.3974 -5.91789 -1.92193
upperneck 2.213 -7.76706 6.82134
head 3.92988 -3.36508 1.75352
rclavicle 3.8763e-014 -4.69132e-014
rhumerus 2.08616 -8.65747 -97.4863
rradius 74.1585
rwrist 108.905
rhand -28.4048 -10.9796
rfingers 7.12502
rthumb -1.7769 -40.952
lclavicle 3.8763e-014 -4.69132e-014
lhumerus -38.6375 -21.8127 91.2966
lradius 45.9203
lwrist 21.1895
lhand -8.94006 27.1463
lfingers 7.12502
lthumb 17.0041 56.4221
rfemur -6.75108 -14.0951 20.0879
rtibia -1.11319e-014
rfoot -4.28071 8.11977
rtoes -8.94288
lfemur -17.9485 3.24845 -17.0356
ltibia 18.5008
lfoot -12.4558 -5.25911
ltoes -26.1441
1245
root 1.40935 18.5413 0.711121 -171.741 83.2103 -184.239
lowerback -6.71563 0.906691 -1.68511
upperback -2.9471 1.43886 -2.263
thorax 0.744607 0.762322 -1.27679
lowerneck -18.2917 -5.92806 -1.97317
upperneck 2.12985 -7.76498 6.8192
head 3.88976 -3.3692 1.76439
rclavicle 7.90169e-015 5.56597e-015
rhumerus 3.71938 -8.62857 -97.3297
rradius 74.7918
rwrist 108.517
rhand -28.4507 -10.6412
rfingers 7.12502
rthumb -1.82125 -40.6132
lclavicle 7.90169e-015 5.56597e-015
lhumerus -38.6322 -21.5794 91.2562
lradius 45.9246
lwrist 21.3801
lhand -9.04782 27.3293
lfingers 7.12502
lthumb 16.9004 56.6139
rfemur -6.68015 -13.9746 20.0188
rtibia 4.77083e-015
rfoot -4.29473 8.12897
rtoes -8.82072
lfemur -17.8382 3.41237 -17.0906
ltibia 18.4981
lfoot -12.5069 -5.27721
ltoes -26.3053
1246
root 1.41588 18.5414 0.698371 -172.038 83.2365 -184.451
lowerback -6.83981 0.891148 -1.52146
upperback -2.99182 1.41226 -2.25766
thorax 0.770925 0.74854 -1.36325
lowerneck -18.1942 -5.93025 -1.89783
upperneck 2.11029 -7.77763 6.71748
head 3.86163 -3.38411 1.72266
rclavicle 1.34677e-014 -2.54444e-014
rhumerus 5.2998 -8.52932 -97.1759
rradius 75.5189
rwrist 108.256
rhand -28.5111 -10.3381
rfingers 7.12502
rthumb -1.87951 -40.3096
lclavicle 1.34677e-014 -2.54444e-014
lhumerus -38.7134 -21.4155 91.1335
lradius 46.1161
lwrist 21.6889
lhand -9.05936 27.6118
lfingers 7.12502
lthumb 16.8893 56.8974
rfemur -6.54482 -13.9631 19.9125
rtibia 7.95139e-016
rfoot -4.28304 8.10583
rtoes -8.60493
lfemur -17.6923 3.44164 -17.1537
ltibia 18.4947
lfoot -12.5046 -5.32396
ltoes -25.9251
1247
root 1.42136 18.543 0.687511 -172.256 83.3281 -184.591
lowerback -6.96015 0.878965 -1.38036
upperback -3.03323 1.39088 -2.24728
thorax 0.79777 0.73746 -1.43164
lowerneck -18.1672 -5.92583 -1.811
upperneck 2.19272 -7.79023 6.60098
head 3.87462 -3.39656 1.67168
rclavicle 2.47487e-014 1.27222e-014
rhumerus 6.87844 -8.40197 -97.0866
rradius 76.1556
rwrist 108.129
rhand -28.4865 -10.4223
rfingers 7.12502
rthumb -1.85577 -40.394
lclavicle 2.47487e-014 1.27222e-014
lhumerus -38.698 -21.1291 90.9072
lradius 46.1379
lwrist 21.8699
lhand -8.98293 27.5075
lfingers 7.12502
lthumb 16.9629 56.7868
rfemur -6.43702 -13.8808 19.831
rtibia 1.03368e-014
rfoot -4.34175 8.08917
rtoes -9.00499
lfemur -17.5463 3.40546 -17.1906
ltibia 18.4808
lfoot -12.5685 -5.22888
ltoes -25.7334
1248
root 1.42959 18.5434 0.675339 -173.2 83.4548 -185.47
lowerback -7.1346 0.886383 -1.3335
upperback -3.05864 1.40354 -2.23939
thorax 0.869331 0.74405 -1.44605
lowerneck -18.111 -5.94921 -1.88237
upperneck 2.24183 -7.81386 6.6185
head 3.88579 -3.40936 1.68638
rclavicle 2.54444e-014 -1.27222e-014
rhumerus 8.42814 -8.30701 -96.8753
rradius 76.7015
rwrist 108.041
rhand -28.6508 -10.54
rfingers 7.12502
rthumb -2.01445 -40.5103
lclavicle 2.54444e-014 -1.27222e-014
lhumerus -38.5956 -20.8335 90.7314
lradius 46.055
lwrist 22.0725
lhand -8.96961 27.3728
lfingers 7.12502
lthumb 16.9757 56.651
rfemur -6.34168 -13.777 19.6467
rtibia 7.95139e-015
rfoot -4.35602 8.07725
rtoes -9.12716
lfemur -17.3953 3.48865 -17.349
ltibia 18.4669
lfoot -12.6403 -5.18532
ltoes -25.7695
1249
root 1.43961 18.542 0.664495 -172.884 83.5443 -185.048
lowerback -7.25073 0.94897 -1.19872
upperback -3.08516 1.47996 -2.19438
thorax 0.909715 0.781582 -1.4675
lowerneck -18 -5.98406 -1.63705
upperneck 2.20935 -7.88661 6.26741
head 3.83509 -3.46764 1.53721
rclavicle 9.93923e-016 -5.56597e-015
rhumerus 9.91142 -8.40529 -96.561
rradius 77.2673
rwrist 107.942
rhand -28.8135 -10.2901
rfingers 7.12502
rthumb -2.17156 -40.2588
lclavicle 9.93923e-016 -5.56597e-015
lhumerus -38.5419 -20.6872 90.6644
lradius 45.986
lwrist 22.1817
lhand -9.14242 27.3131
lfingers 7.12502
lthumb 16.8093 56.6055
rfemur -6.19238 -13.6872 19.6319
rtibia 2.38542e-015
rfoot -4.41135 8.05013
rtoes -9.56734
lfemur -17.2243 3.58134 -17.3296
ltibia 18.4512
lfoot -12.6838 -5.19272
ltoes -25.5873
